<svg id="Capa_1" data-name="Capa 1" xmlns="http://www.w3.org/2000/svg" viewBox="0 0 240 69.09"><defs><style>.cls-1{fill:#0a5837;}</style></defs><title>Downloader_btn</title><path class="cls-1" d="M183.22,38.37c0,1.56,1.36,2.3,2.77,2.3,2.35,0,4.68-1.14,4.68-3.73v-2a12.29,12.29,0,0,1-3.84.72C184.58,35.82,183.22,36.64,183.22,38.37Z"/><path class="cls-1" d="M110.52,29.84c-2.62,0-4,2.1-4.31,4.52h8.36C114.57,31.87,113.19,29.84,110.52,29.84Z"/><path class="cls-1" d="M172.73,29.84c-2.5,0-4.35,1.8-4.38,5s1.31,5.81,4.38,5.81c2.7,0,4.33-2.47,4.33-5.37C177.06,32.21,175.53,29.84,172.73,29.84Z"/><path class="cls-1" d="M205.45,0H34.55A34.55,34.55,0,0,0,0,34.55H0A34.54,34.54,0,0,0,34.55,69.09h170.9A34.54,34.54,0,0,0,240,34.55h0A34.55,34.55,0,0,0,205.45,0ZM46.19,51.73A17.19,17.19,0,1,1,63.38,34.55,17.18,17.18,0,0,1,46.19,51.73Zm53.86-12.25c-1.63,1.83-4,2.18-6.3,2.18H87.66V23.85h6.09a8.74,8.74,0,0,1,5.49,1.34c2.35,1.7,3,5.17,3,7.54A10,10,0,0,1,100.05,39.48Zm10.47,1.19a3.74,3.74,0,0,0,3.88-2.94h1.66c-.74,2.42-2.28,4.28-5.54,4.28-4.11,0-5.89-2.92-5.89-6.71s2.23-6.8,5.89-6.8,5.66,2.5,5.64,7.1h-10C106.19,38.37,107.67,40.67,110.52,40.67ZM123.28,42a4.5,4.5,0,0,1-4.87-4.36h1.51c.47,2.21,1.61,3,3.83,3s3.17-1.14,3.17-2.37c0-3.71-8.21-1.09-8.21-6.14,0-2.12,1.65-3.66,4.5-3.66s4.57,1.14,4.94,4h-1.5c-.28-2-1.61-2.69-3.47-2.69s-2.89.89-2.89,2.2c0,3.49,8.21,1.31,8.21,6.23C128.5,40.72,126.3,42,123.28,42Zm13.41,0c-4.08,0-5.89-2.95-5.89-6.73,0-3.56,2.06-6.78,5.89-6.78,2.94,0,4.87,1.41,5.32,4.38H140.5a3.75,3.75,0,0,0-3.81-3c-3,0-4.3,2.77-4.3,5.44s1.23,5.39,4.3,5.39a3.75,3.75,0,0,0,3.93-3.44h1.59C141.69,40.08,139.9,42,136.69,42Zm19.91-.4a3.87,3.87,0,0,1-1.16.25,2.86,2.86,0,0,1-.67-.08c-1-.14-1.16-1-1.19-1.9A6.25,6.25,0,0,1,148.81,42c-2.25,0-4.28-1.22-4.28-3.69,0-2.15,1.49-3.46,4.48-3.86l2.05-.27a7.61,7.61,0,0,0,2-.42c.49-.22.54-.89.54-1.34,0-1.5-.89-2.59-3.19-2.59-2.05,0-3.46.67-3.74,2.89h-1.5c.22-3,2.47-4.23,5.26-4.23,2.6,0,4.65,1,4.65,4v7c0,1.16.3,1.43,1.56,1Zm8.12-11.5c-3.34-.07-4.23,2.4-4.23,5.27v6.28H159V28.85h1.49v2.4h0c.81-2.06,2-2.75,4.18-2.75Zm13.82,10.31c0,3.44-1.13,6.48-6,6.48-3.76,0-5.31-2.15-5.41-3.68h1.58c.45,1.93,2.08,2.35,3.83,2.35,4.06,0,4.6-3,4.53-6a5.33,5.33,0,0,1-4.58,2.4c-3.9,0-5.71-3.19-5.71-6.78,0-3.78,1.66-6.73,5.79-6.73A5.16,5.16,0,0,1,177,31.1h.05V28.85h1.48Zm15.17,1.19a4,4,0,0,1-1.16.25,2.86,2.86,0,0,1-.67-.08c-1-.14-1.16-1-1.19-1.9A6.28,6.28,0,0,1,185.92,42c-2.25,0-4.28-1.22-4.28-3.69,0-2.15,1.48-3.46,4.47-3.86l2.06-.27a7.54,7.54,0,0,0,2-.42c.5-.22.55-.89.55-1.34,0-1.5-.9-2.59-3.19-2.59-2.06,0-3.47.67-3.74,2.89h-1.51c.22-3,2.47-4.23,5.27-4.23,2.6,0,4.65,1,4.65,4v7c0,1.16.3,1.43,1.56,1Zm8.11-11.5c-3.34-.07-4.23,2.4-4.23,5.27v6.28h-1.48V28.85h1.48v2.4h0c.82-2.06,2-2.75,4.18-2.75Z"/><path class="cls-1" d="M146.11,38.37c0,1.56,1.37,2.3,2.78,2.3,2.34,0,4.67-1.14,4.67-3.73v-2a12.23,12.23,0,0,1-3.83.72C147.48,35.82,146.11,36.64,146.11,38.37Z"/><path class="cls-1" d="M97.46,26a9.32,9.32,0,0,0-4.09-.66h-4V40.23h4a8.42,8.42,0,0,0,4.19-.82c2.37-1.21,3-4.25,3-6.68C100.52,30.13,100,27.29,97.46,26Z"/><path class="cls-1" d="M57.74,38.55a.62.62,0,0,0-.62.62v2.36A2.48,2.48,0,0,1,54.64,44H37.74a2.48,2.48,0,0,1-2.47-2.48V39.17a.62.62,0,0,0-.62-.62.61.61,0,0,0-.62.62v2.36a3.72,3.72,0,0,0,3.71,3.72h16.9a3.73,3.73,0,0,0,3.72-3.72V39.17A.62.62,0,0,0,57.74,38.55Z"/><path class="cls-1" d="M38.41,42.23H54a.62.62,0,0,0,.62-.62A.62.62,0,0,0,54,41H38.41a.61.61,0,0,0-.62.62A.62.62,0,0,0,38.41,42.23Z"/><path class="cls-1" d="M45.16,37.78a1.57,1.57,0,0,0,1,.4,1.55,1.55,0,0,0,1-.4l5.19-4.63a.62.62,0,0,0-.82-.93l-4.78,4.27v-12a.62.62,0,0,0-.62-.62.62.62,0,0,0-.62.62v12L40.8,32.22a.62.62,0,1,0-.83.93Z"/></svg>